<?xml version="1.0" encoding="utf-8"?>
<!-- Generator: Adobe Illustrator 27.5.0, SVG Export Plug-In . SVG Version: 6.00 Build 0)  -->
<svg version="1.1" id="Capa_1" xmlns="http://www.w3.org/2000/svg" xmlns:xlink="http://www.w3.org/1999/xlink" x="0px" y="0px"
	 viewBox="0 0 2122 2122" style="enable-background:new 0 0 2122 2122;" xml:space="preserve">
<path style="fill:#CC7A29;" d="M518.417,1254.006c3.109-1.524,6.236-3.012,9.387-4.468
	c-43.198-112.842-69.889-238.412-85.988-338.575c-17.418-108.422-22.431-187.013-22.44-187.127l-0.006-0.136
	c-0.608-16.369-0.901-32.227-0.901-47.592c0-113.795,16.084-200.547,41.025-266.712c24.934-66.161,58.77-111.712,94.041-142.89
	c19.653-17.368,39.707-30.256,58.88-39.827C215.765,373.386,474.934,1134.514,518.417,1254.006z"/>
<path style="fill:#CC7A29;" d="M1062.932,236.383c25.974,0.001,49.352,0.871,68.755,1.995
	c-89.817-22.525-183.851-29.734-267.085-29.734c-102.48,0-184.56,10.974-211.533,14.58c-5.482,0.733-8.027,1.068-9.584,1.206
	c-10.305,3.759-21.098,8.405-32.176,14.284c-50.115,26.628-105.609,77.157-142.263,174.281
	c-24.414,64.755-40.371,150.271-40.37,263.111c0,15.212,0.291,30.921,0.892,47.14c0.01,0.156,0.084,1.296,0.242,3.476
	c0.169,2.341,0.431,5.812,0.8,10.318c0.738,9.012,1.904,22.163,3.612,38.692c3.415,33.058,9,79.627,17.672,133.609
	c15.989,99.564,42.556,224.34,85.234,335.992c8.531-3.764,17.215-7.403,26.073-11.107l0.451-0.189
	c14.454-6.044,41.923-9.638,71.264-11.874c-16.9-110.717-93.684-659.884,16.765-836.603
	C730.793,258.981,930.425,236.381,1062.932,236.383z"/>
<path style="fill:#E39A46;" d="M541.773,1837.945c-2.753-7.108-5.406-14.256-7.967-21.435c-6.43-18.023-12.23-36.272-17.433-54.686
	c-9.726-34.42-17.024-69.335-22.626-104.648c-0.111-0.701-0.199-1.245-0.28-1.739c-0.442-3.677-0.882-7.352-1.283-11.034
	c-0.948-8.75-1.742-17.516-2.396-26.293c-1.295-17.372-2.01-34.784-2.094-52.205c-0.08-17.121,0.441-34.24,1.638-51.32
	c0.588-8.415,1.504-16.792,2.248-25.192c0.021-0.24,0.104-0.969,0.211-1.864c0.53-3.199,1.912-12.48,1.884-12.327
	c5.421-31.727,13.505-63.064,24.863-93.198c1.168-3.097,2.398-6.167,3.617-9.243c0.366-0.683,0.789-1.485,1.354-2.573
	c4.538-8.778,8.62-17.764,13.326-26.466c9.948-18.387,21.139-35.996,33.158-53.088c1.354-1.922,2.066-2.972,2.42-3.528
	c0.288-0.365,0.556-0.703,0.915-1.161c3.581-4.563,7.376-8.97,11.203-13.327c7.594-8.645,15.544-16.954,23.95-24.813
	c4.123-3.853,8.29-7.662,12.681-11.21l0.918-0.75c0.596-0.349,1.491-0.906,2.823-1.771c0.5-0.325,1.011-0.639,1.51-0.966
	c-24.734,2.167-46.991,5.399-58.827,10.348c-63.068,26.374-115.101,47.965-163.131,138.065
	c-37.629,70.586-52.032,224.139-22.014,352.219c27.169,115.923,80.05,160.099,125.595,183.065
	c15.737,7.935,47.8,13.551,81.606,17.678c-15.905-26.914-30.115-54.805-42.662-83.439
	C545.215,1846.69,543.47,1842.327,541.773,1837.945z"/>
<path style="fill:#CC8134;" d="M747.023,1227.339c-0.115,0.006-0.226,0.013-0.339,0.019c-2.398,0.128-4.689,0.296-6.813,0.48
	c-0.585,0.05-1.361,0.099-2.236,0.146c-0.235,0.012-0.507,0.025-0.761,0.037c-0.736,0.036-1.541,0.072-2.436,0.107
	c-0.292,0.011-0.582,0.023-0.891,0.035c-1.181,0.044-2.445,0.088-3.854,0.133c-0.019,0.001-0.036,0.001-0.056,0.002
	c-1.548,0.048-3.236,0.099-5.035,0.151c-0.225,0.006-0.475,0.013-0.704,0.02c-2.312,0.066-4.849,0.137-7.512,0.211
	c-0.011,0-0.024,0-0.036,0.001c-1.655,0.046-3.325,0.093-5.1,0.143c-1.893,0.054-3.851,0.111-5.865,0.171
	c-0.732,0.022-1.487,0.046-2.234,0.068c-1.546,0.047-3.121,0.096-4.725,0.148c-0.871,0.027-1.74,0.056-2.626,0.085
	c-1.755,0.058-3.547,0.12-5.359,0.183c-0.708,0.025-1.398,0.049-2.115,0.075c-2.497,0.09-5.036,0.187-7.616,0.29
	c-0.543,0.022-1.095,0.046-1.64,0.068c-2.08,0.085-4.182,0.175-6.302,0.269c-0.859,0.038-1.717,0.078-2.581,0.118
	c-1.98,0.091-3.972,0.188-5.972,0.288c-0.772,0.038-1.538,0.076-2.311,0.116c-2.733,0.141-5.476,0.29-8.224,0.45
	c-0.324,0.019-0.648,0.04-0.972,0.059c-2.423,0.143-4.846,0.294-7.267,0.453c-0.826,0.054-1.647,0.111-2.471,0.167
	c-2.021,0.138-4.034,0.281-6.041,0.431c-0.81,0.06-1.62,0.119-2.428,0.182c-2.711,0.21-5.41,0.427-8.074,0.66
	c-0.004,0-0.007,0-0.011,0.001l0,0c-0.499,0.327-1.01,0.641-1.51,0.966c-1.332,0.865-2.228,1.422-2.823,1.771l-0.918,0.75
	c-4.391,3.548-8.558,7.357-12.681,11.21c-8.406,7.859-16.356,16.168-23.95,24.813c-3.827,4.357-7.622,8.764-11.203,13.327
	c-0.359,0.459-0.627,0.797-0.915,1.161c-0.354,0.556-1.067,1.606-2.42,3.528c-12.019,17.091-23.21,34.701-33.158,53.088
	c-4.707,8.702-8.788,17.688-13.326,26.466c-0.564,1.088-0.988,1.889-1.354,2.573c-1.219,3.076-2.45,6.146-3.617,9.243
	c-11.358,30.134-19.442,61.471-24.863,93.198c0.028-0.153-1.355,9.127-1.884,12.327c-0.106,0.895-0.189,1.624-0.211,1.864
	c-0.743,8.4-1.659,16.777-2.248,25.192c-1.197,17.08-1.719,34.199-1.638,51.32c0.084,17.421,0.799,34.832,2.094,52.205
	c0.654,8.777,1.447,17.543,2.396,26.293c0.401,3.682,0.841,7.357,1.283,11.034c0.082,0.494,0.17,1.038,0.28,1.739
	c5.602,35.313,12.9,70.228,22.626,104.648c5.203,18.414,11.003,36.663,17.433,54.686c2.561,7.18,5.214,14.328,7.967,21.435
	c1.697,4.382,3.442,8.744,5.211,13.097c12.547,28.635,26.757,56.525,42.662,83.439l0,0c0.015,0.002,0.031,0.004,0.046,0.005
	c31.909,3.894,65.352,6.462,88.107,8.39c0.594,0.05,1.15,0.099,1.73,0.148c0.894,0.076,1.81,0.154,2.667,0.228
	c1.511,0.131,2.963,0.259,4.352,0.384c3.552,0.32,6.96,0.517,10.282,0.649c1.061,0.042,2.072,0.047,3.111,0.071
	c2.184,0.05,4.331,0.074,6.413,0.05c1.355-0.016,2.668-0.054,3.979-0.099c1.805-0.061,3.579-0.143,5.303-0.256
	c1.258-0.083,2.496-0.173,3.711-0.281c1.671-0.148,3.296-0.322,4.889-0.515c1.138-0.137,2.276-0.271,3.374-0.429
	c1.581-0.227,3.099-0.485,4.597-0.751c0.988-0.175,1.995-0.338,2.946-0.528c1.556-0.311,3.027-0.652,4.487-0.997
	c0.785-0.186,1.607-0.356,2.364-0.55c1.783-0.457,3.464-0.942,5.096-1.436c0.348-0.106,0.736-0.202,1.077-0.308
	c1.936-0.607,3.753-1.236,5.471-1.874c0.24-0.089,0.461-0.179,0.698-0.268c-0.754,0.006-1.49,0.051-2.246,0.051
	c-12.941,0-26.503-0.986-40.314-2.932c-41.482-5.843-77.211-29.075-106.191-69.053c-65.152-89.877-89.409-259.778-60.359-422.778
	c27.25-152.898,123.211-192.713,127.282-194.333l0.721-0.256c28.716-9.001,56.356-13.565,82.149-13.565
	c13.184,0,25.902,1.226,38.194,3.53c-0.121-0.082-0.247-0.153-0.368-0.234c-0.201-0.135-0.408-0.257-0.61-0.389
	c-1.162-0.752-2.353-1.451-3.577-2.09c-0.157-0.082-0.308-0.172-0.465-0.252c-1.307-0.663-2.652-1.253-4.016-1.799
	c-0.29-0.116-0.582-0.231-0.875-0.342c-1.362-0.517-2.74-0.99-4.144-1.404c-0.207-0.061-0.418-0.113-0.626-0.172
	c-1.331-0.377-2.675-0.712-4.03-1.006c-0.208-0.045-0.416-0.098-0.625-0.141c-1.442-0.3-2.894-0.549-4.348-0.766
	c-0.307-0.046-0.614-0.089-0.922-0.132c-1.455-0.2-2.91-0.371-4.36-0.5c-0.174-0.016-0.35-0.025-0.524-0.04
	c-1.383-0.115-2.756-0.2-4.121-0.259c-0.226-0.01-0.452-0.023-0.677-0.032c-1.429-0.054-2.839-0.078-4.235-0.082
	c-0.224,0-0.445,0-0.668,0C751.852,1227.145,749.381,1227.218,747.023,1227.339z"/>
<path style="fill:#422A2D;" d="M755.389,1243.456c-24.147,0-50.447,4.117-79.097,13.097c0,0-94.442,37.577-121.008,186.641
	c-36.918,207.151,12.306,459.424,157.927,479.934c13.483,1.899,26.453,2.832,38.891,2.832c121.895,0,194.051-89.429,225.689-234.595
	C1009.021,1548.064,962.873,1243.456,755.389,1243.456z"/>
<path style="fill:#282033;" d="M933.732,1372.123c-32.089-58.624-75.442-90.909-122.074-90.909
	c-46.632,0-89.985,32.285-122.074,90.909c-31.024,56.678-48.11,131.814-48.11,211.564c0,79.751,17.085,154.886,48.11,211.565
	c32.089,58.624,75.442,90.909,122.074,90.909c46.632,0,89.985-32.286,122.074-90.909c31.024-56.678,48.11-131.814,48.11-211.565
	C981.842,1503.936,964.756,1428.801,933.732,1372.123z"/>
<ellipse style="fill:#29191D;" cx="811.658" cy="1583.687" rx="159.978" ry="292.267"/>
<path style="fill:#422A2D;" d="M1258.99,1909.849c11.545,6.297,39.984,13.014,71.036,18.851
	c-49.267-62.936-102.156-213.252-100.383-328.365c2.15-139.725,55.675-300.123,93.488-362.19c1.407-2.308,2.932-4.51,4.51-6.662
	c-29.152,8.985-59.139,21.492-78.659,38.346C1149,1356.155,1104.894,1825.797,1258.99,1909.849z"/>
<path style="fill:#E39A46;" d="M1283.736,1599.542c45.641,116.207,125.951,211.688,221.562,289.432
	c-42.79-67.625-68.404-184.9-64.226-320.134c4.493-145.433,42.523-268.782,95.538-330.046c1.285-5.878,3.545-25.098,5.753-54.103
	c-14.708-1.751-30.203-2.715-45.924-2.715c-66.944,0-137.538,17.072-164.592,61.479c-29.528,48.467-65.93,151.93-82.739,257.215
	c1.776-11.114,3.768-22.208,5.949-33.219C1257.743,1511.965,1266.739,1556.265,1283.736,1599.542z"/>
<path style="fill:#CC7A29;" d="M1496.646,1964.573c1.82-0.016,3.633-0.044,5.443-0.076c0.864-0.016,1.73-0.026,2.592-0.045
	c2.521-0.055,5.03-0.124,7.525-0.21c0.117-0.004,0.237-0.006,0.353-0.01c2.635-0.092,5.247-0.205,7.841-0.332
	c0.741-0.036,1.472-0.081,2.211-0.12c1.845-0.098,3.683-0.201,5.502-0.316c0.881-0.056,1.753-0.117,2.628-0.178
	c1.659-0.113,3.306-0.234,4.938-0.362c0.903-0.071,1.801-0.144,2.695-0.22c1.632-0.138,3.245-0.286,4.845-0.439
	c0.822-0.078,1.648-0.155,2.461-0.237c1.843-0.187,3.654-0.387,5.448-0.595c0.523-0.06,1.056-0.115,1.574-0.177
	c2.313-0.277,4.586-0.572,6.807-0.884c0.434-0.06,0.845-0.128,1.274-0.19c1.749-0.253,3.474-0.514,5.159-0.788
	c0.727-0.118,1.431-0.243,2.146-0.366c1.37-0.234,2.722-0.474,4.044-0.724c0.744-0.14,1.476-0.284,2.205-0.43
	c1.261-0.251,2.492-0.51,3.703-0.775c0.698-0.153,1.394-0.304,2.075-0.462c1.252-0.289,2.461-0.59,3.653-0.896
	c0.56-0.144,1.137-0.282,1.686-0.43c1.698-0.456,3.343-0.927,4.904-1.416c0.004-0.001,0.01-0.002,0.014-0.004
	c0.331-0.104,0.655-0.235,0.981-0.357c0.537-0.201,1.075-0.4,1.616-0.587c-1.457-0.956-2.9-1.935-4.354-2.898
	c-31.538-2.123-59.978-24.196-83.315-61.077c-95.611-77.744-175.922-173.225-221.562-289.432
	c-16.998-43.277-25.994-87.577-28.679-132.091c-2.181,11.011-4.173,22.105-5.949,33.219c-0.042,0.258-0.08,0.516-0.122,0.775
	c-0.789,4.968-1.528,9.94-2.227,14.91c-0.118,0.842-0.236,1.682-0.352,2.524c-0.668,4.865-1.295,9.727-1.869,14.582
	c-0.055,0.453-0.115,0.906-0.168,1.359c-0.623,5.33-1.186,10.65-1.691,15.952c-0.066,0.69-0.117,1.376-0.18,2.067
	c-0.4,4.342-0.754,8.67-1.068,12.985c-0.11,1.505-0.208,3.003-0.307,4.504c-0.242,3.67-0.448,7.325-0.625,10.967
	c-0.072,1.477-0.152,2.956-0.212,4.427c-0.204,4.952-0.364,9.883-0.439,14.769c-0.128,8.333,0.037,16.847,0.473,25.497
	c6.319,125.416,69.387,279.14,115.618,315.168c1.594,1.242,3.169,2.345,4.72,3.301c1.283,0.791,2.702,1.554,4.208,2.297
	c0.487,0.24,1.031,0.469,1.54,0.704c1.067,0.493,2.153,0.982,3.316,1.455c0.658,0.267,1.354,0.525,2.041,0.786
	c1.119,0.424,2.26,0.841,3.452,1.246c0.755,0.256,1.528,0.508,2.311,0.758c1.234,0.393,2.503,0.775,3.805,1.149
	c0.81,0.233,1.618,0.467,2.454,0.693c1.408,0.381,2.865,0.747,4.341,1.108c0.795,0.194,1.57,0.394,2.384,0.583
	c1.836,0.426,3.733,0.831,5.662,1.228c0.503,0.103,0.983,0.215,1.492,0.317c2.477,0.493,5.022,0.963,7.631,1.41
	c0.631,0.108,1.291,0.205,1.929,0.31c1.996,0.329,4.011,0.651,6.072,0.954c0.956,0.14,1.936,0.27,2.904,0.404
	c1.794,0.249,3.598,0.493,5.434,0.722c1.09,0.136,2.194,0.266,3.297,0.395c1.78,0.208,3.572,0.408,5.385,0.599
	c1.13,0.118,2.265,0.235,3.407,0.347c1.861,0.182,3.74,0.351,5.631,0.515c1.114,0.096,2.222,0.196,3.344,0.285
	c2.068,0.166,4.156,0.314,6.25,0.458c0.956,0.065,1.902,0.139,2.862,0.2c3.049,0.193,6.116,0.367,9.202,0.514
	c0.311,0.015,0.626,0.025,0.938,0.038c2.782,0.129,5.574,0.24,8.375,0.331c1.074,0.035,2.153,0.057,3.23,0.087
	c2.056,0.056,4.109,0.109,6.169,0.146c1.227,0.022,2.452,0.034,3.678,0.049c1.915,0.023,3.827,0.039,5.739,0.045
	c1.526,0.004,3.053,0.005,4.575-0.002C1494.694,1964.586,1495.671,1964.582,1496.646,1964.573z"/>
<path style="fill:#F8B36E;" d="M1655.178,1222.771c-3.947,14.879-6.402,23.258-6.496,23.577c-1.05,3.552-3.943,6.257-7.557,7.067
	c-1.882,0.422-46.398,10.322-74.752,10.322c-15.192,0-23.958-2.838-28.424-9.202c-0.203-0.29-0.307-0.618-0.488-0.917
	c-47.568,61.736-81.984,179.456-86.189,315.537c-6.248,202.272,56.587,368.344,140.348,370.931c0.659,0.02,1.323,0.03,1.981,0.03
	c82.928,0,154.795-160.912,160.995-361.592C1759.775,1410.892,1717.484,1268.227,1655.178,1222.771z"/>
<path style="fill:#282033;" d="M1657.936,1212.23c12.426-48.116,34.623-142.425,49.189-252.47
	c28.378-214.399,15.917-383.225-37.034-501.789c-49.115-109.975-146.427-193.04-289.234-246.888
	c-110.424-41.637-249.374-64.57-391.252-64.575h-0.042c-45.077,0-88.792,2.279-129.929,6.776
	c-1.267,0.153-115.843,14.337-221.069,51.212c-2.78,0.974-4.637,2.723-5.76,4.726c-83.281,24.333-146.372,74.468-187.874,149.443
	c-38.503,69.558-58.675,161.176-59.954,272.309c-1.015,88.257,9.805,189.08,32.161,299.666
	c31.181,154.246,76.534,285.165,92.129,328.016c-41.302,21.711-78.831,52.437-113.815,118.063
	c-41.742,78.301-51.819,236.146-22.944,359.349c29.5,125.865,88.856,168.63,130.937,189.849
	c27.862,14.048,95.73,20.667,162.858,26.242c7.252,0.602,13.788,1.145,19.329,1.644c6.345,0.572,12.634,0.862,18.694,0.862
	c42.925,0,66.929-14.373,74.725-20.035c50.171-5.625,92.904-27.253,127.255-64.623c37.397-40.684,64.803-100.056,81.456-176.468
	c11.575-53.108,12.061-124.47,1.301-190.893c-8.912-55.016-29.529-133-77.13-192.094c-28.183-34.987-61.657-58.187-99.937-69.416
	c-1.617-2.376-3.372-4.641-5.386-6.693c-11.411-11.624-28.882-17.518-51.923-17.518c-4.823,0-9.81,0.237-15.693,0.746
	c-2.924,0.253-10.926,0.475-21.059,0.756c-19.453,0.54-46.351,1.289-72.784,3.017c-16.458-108.467-92.967-657.429,15.185-830.473
	c33.765-54.024,94.229-93.604,179.711-117.642c63.103-17.744,138.092-26.741,222.885-26.739
	c57.468,0.001,102.58,4.342,118.727,6.131c107.167,34.918,203.82,95.031,262.466,195.418
	c116.201,198.907,109.613,574.418,98.986,726.301c-14.861-1.737-30.574-2.669-46.672-2.669c-34.659,0-112.13,4.893-155.88,45.301
	c-34.708,9.445-73.795,23.921-98.246,45.032c-65.613,56.65-108.5,266.094-89.98,439.42c8.373,78.368,32.826,179.679,101.771,217.285
	c14.026,7.651,49.911,15.633,86.536,22.134c4.99,5.114,9.903,9.267,14.663,12.202c25.906,15.975,87.082,21.667,135.693,21.667
	c42.486,0,79.822-4.076,102.435-11.182c18.646-5.86,35.559-16.667,50.766-31.312c65.797-47.789,115.43-186.006,120.603-353.478
	c3.063-99.136-10.105-192.99-37.076-264.274C1709.089,1265.318,1685.09,1230.527,1657.936,1212.23z M1754.597,1578.524
	c-6.199,200.68-78.067,361.592-160.995,361.592c-0.658,0-1.322-0.01-1.981-0.03c-83.761-2.587-146.597-168.659-140.348-370.931
	c4.205-136.081,38.622-253.801,86.189-315.537c0.182,0.299,0.285,0.628,0.488,0.917c4.465,6.365,13.231,9.202,28.424,9.202
	c28.354,0,72.87-9.9,74.752-10.322c3.614-0.81,6.507-3.515,7.557-7.067c0.094-0.318,2.549-8.697,6.496-23.577
	C1717.484,1268.227,1759.775,1410.892,1754.597,1578.524z M1483.401,1964.546c-1.226-0.015-2.452-0.027-3.678-0.049
	c-2.06-0.036-4.113-0.089-6.169-0.146c-1.078-0.029-2.155-0.052-3.23-0.087c-2.801-0.091-5.593-0.202-8.375-0.331
	c-0.312-0.014-0.626-0.023-0.938-0.038c-3.086-0.147-6.154-0.321-9.202-0.514c-0.961-0.061-1.906-0.134-2.862-0.2
	c-2.094-0.144-4.181-0.292-6.25-0.458c-1.123-0.09-2.229-0.189-3.344-0.285c-1.89-0.164-3.77-0.333-5.631-0.515
	c-1.144-0.112-2.276-0.228-3.407-0.347c-1.813-0.191-3.605-0.391-5.385-0.599c-1.105-0.129-2.207-0.259-3.297-0.395
	c-1.836-0.229-3.64-0.473-5.434-0.722c-0.97-0.134-1.948-0.264-2.904-0.404c-2.06-0.303-4.075-0.625-6.072-0.954
	c-0.638-0.105-1.299-0.202-1.929-0.31c-2.609-0.447-5.155-0.917-7.631-1.41c-0.51-0.102-0.988-0.214-1.492-0.317
	c-1.928-0.397-3.826-0.802-5.662-1.228c-0.814-0.189-1.589-0.388-2.384-0.583c-1.476-0.361-2.933-0.727-4.341-1.108
	c-0.836-0.226-1.644-0.459-2.454-0.693c-1.302-0.375-2.571-0.757-3.805-1.149c-0.783-0.249-1.556-0.501-2.311-0.758
	c-1.192-0.406-2.333-0.823-3.452-1.246c-0.687-0.26-1.383-0.518-2.041-0.786c-1.162-0.473-2.249-0.961-3.316-1.455
	c-0.509-0.236-1.052-0.464-1.54-0.704c-1.507-0.744-2.926-1.507-4.208-2.297c-1.551-0.956-3.126-2.059-4.72-3.301
	c-46.231-36.028-109.3-189.752-115.618-315.168c-0.436-8.65-0.602-17.164-0.473-25.497c0.075-4.886,0.235-9.817,0.439-14.769
	c0.06-1.472,0.14-2.951,0.212-4.427c0.177-3.643,0.383-7.297,0.625-10.967c0.099-1.501,0.198-3,0.307-4.504
	c0.313-4.315,0.669-8.642,1.068-12.985c0.063-0.69,0.114-1.376,0.18-2.067c0.503-5.303,1.07-10.622,1.691-15.952
	c0.053-0.453,0.113-0.906,0.168-1.359c0.575-4.855,1.202-9.716,1.869-14.582c0.116-0.842,0.234-1.682,0.352-2.524
	c0.699-4.971,1.438-9.941,2.227-14.91c0.041-0.259,0.08-0.517,0.122-0.775c16.809-105.285,53.211-208.749,82.739-257.215
	c27.054-44.407,97.648-61.479,164.592-61.479c15.721,0,31.217,0.964,45.924,2.715c-2.208,29.005-4.468,48.224-5.753,54.103
	c-53.015,61.263-91.045,184.613-95.538,330.046c-4.178,135.234,21.436,252.509,64.226,320.134
	c23.337,36.881,51.777,58.953,83.315,61.077c0.9,0.06,1.787,0.208,2.692,0.236c0.763,0.024,1.532,0.036,2.296,0.036
	c2.385,0,4.753-0.175,7.115-0.404c-3.079,1.355-6.195,2.583-9.365,3.616c-0.326,0.122-0.65,0.253-0.981,0.357
	c-0.004,0.002-0.01,0.003-0.014,0.004c-1.561,0.49-3.206,0.96-4.904,1.416c-0.548,0.147-1.125,0.286-1.686,0.43
	c-1.192,0.305-2.401,0.606-3.653,0.896c-0.681,0.158-1.377,0.309-2.075,0.462c-1.211,0.265-2.442,0.524-3.703,0.775
	c-0.728,0.145-1.46,0.289-2.205,0.43c-1.322,0.25-2.674,0.489-4.044,0.724c-0.715,0.123-1.419,0.248-2.146,0.366
	c-1.685,0.274-3.41,0.535-5.159,0.788c-0.428,0.062-0.84,0.13-1.274,0.19c-2.223,0.312-4.494,0.607-6.807,0.884
	c-0.518,0.062-1.051,0.116-1.574,0.177c-1.794,0.208-3.605,0.408-5.448,0.595c-0.812,0.082-1.638,0.159-2.461,0.237
	c-1.6,0.153-3.213,0.301-4.845,0.439c-0.894,0.075-1.793,0.149-2.695,0.22c-1.632,0.129-3.279,0.248-4.938,0.362
	c-0.875,0.06-1.747,0.122-2.628,0.178c-1.82,0.115-3.656,0.219-5.502,0.316c-0.738,0.039-1.469,0.083-2.211,0.12
	c-2.595,0.127-5.206,0.24-7.841,0.332c-0.117,0.004-0.236,0.006-0.353,0.01c-2.495,0.086-5.003,0.155-7.525,0.21
	c-0.862,0.019-1.728,0.03-2.592,0.045c-1.811,0.032-3.623,0.059-5.443,0.076c-0.975,0.009-1.952,0.013-2.931,0.016
	c-0.908,0.004-1.813,0.016-2.721,0.016c-0.618,0-1.236-0.013-1.854-0.014C1487.228,1964.585,1485.316,1964.569,1483.401,1964.546z
	 M1327.641,1231.483c-1.578,2.152-3.104,4.354-4.51,6.662c-37.813,62.067-91.338,222.464-93.488,362.19
	c-1.773,115.112,51.117,265.428,100.383,328.365c-31.052-5.837-59.492-12.554-71.036-18.851
	c-154.096-84.052-109.99-553.694-10.007-640.02C1268.502,1252.976,1298.489,1240.469,1327.641,1231.483z M1452.937,442.99
	c-119.685-204.871-392.155-244.553-588.335-244.551c-124.066,0-217.625,15.871-222.721,15.871l0.058-0.182
	c105.398-36.935,218.802-50.698,218.802-50.698c38.908-4.253,82.494-6.717,128.863-6.716
	c244.594,0.009,565.419,68.636,671.166,305.419c125.795,281.67-21.877,781.323-21.877,781.323s-44.971,10.075-72.52,10.075
	c-13.772,0-23.193-2.519-20.459-10.075C1554.12,1220.787,1599.301,693.528,1452.937,442.99z M634.915,1222.165
	c-29.341,2.236-56.81,5.83-71.264,11.874l-0.451,0.189c-8.859,3.704-17.542,7.343-26.073,11.107
	c-42.677-111.651-69.244-236.428-85.234-335.992c-8.672-53.982-14.257-100.551-17.672-133.609
	c-1.708-16.529-2.873-29.681-3.612-38.692c-0.369-4.506-0.631-7.977-0.8-10.318c-0.158-2.18-0.232-3.32-0.242-3.476
	c-0.6-16.219-0.892-31.929-0.892-47.14c-0.001-112.84,15.956-198.357,40.37-263.111c36.654-97.124,92.147-147.653,142.263-174.281
	c11.078-5.879,21.871-10.525,32.176-14.284c1.558-0.138,4.102-0.473,9.584-1.206c26.973-3.606,109.053-14.58,211.533-14.58
	c83.233-0.001,177.268,7.209,267.085,29.734c-19.403-1.124-42.781-1.995-68.755-1.995
	c-132.506-0.002-332.138,22.597-411.251,149.178C541.231,562.281,618.015,1111.448,634.915,1222.165z M759.293,1227.221
	c0.225,0.009,0.451,0.022,0.677,0.032c1.365,0.059,2.739,0.144,4.121,0.259c0.174,0.015,0.348,0.024,0.524,0.04
	c1.451,0.129,2.905,0.3,4.36,0.5c0.308,0.042,0.615,0.086,0.922,0.132c1.454,0.217,2.907,0.466,4.348,0.766
	c0.21,0.043,0.417,0.096,0.625,0.141c1.356,0.294,2.699,0.629,4.03,1.006c0.21,0.059,0.419,0.111,0.626,0.172
	c1.403,0.414,2.782,0.887,4.144,1.404c0.293,0.111,0.583,0.226,0.875,0.342c1.364,0.546,2.709,1.136,4.016,1.799
	c0.157,0.08,0.308,0.171,0.465,0.252c1.224,0.639,2.415,1.338,3.577,2.09c0.202,0.131,0.409,0.254,0.61,0.389
	c0.121,0.081,0.247,0.152,0.368,0.234c-12.293-2.304-25.01-3.53-38.194-3.53c-25.794,0-53.434,4.564-82.149,13.565l-0.721,0.256
	c-4.071,1.62-100.032,41.435-127.282,194.333c-29.05,163-4.793,332.902,60.359,422.778c28.98,39.978,64.709,63.21,106.191,69.053
	c13.811,1.945,27.374,2.932,40.314,2.932c0.756,0,1.492-0.044,2.246-0.051c-0.236,0.089-0.458,0.179-0.698,0.268
	c-1.719,0.639-3.534,1.267-5.471,1.874c-0.341,0.107-0.728,0.203-1.077,0.308c-1.632,0.495-3.313,0.979-5.096,1.436
	c-0.757,0.194-1.58,0.364-2.364,0.55c-1.461,0.345-2.931,0.686-4.487,0.997c-0.951,0.19-1.958,0.353-2.946,0.528
	c-1.501,0.266-3.013,0.523-4.597,0.751c-1.099,0.158-2.237,0.292-3.374,0.429c-1.594,0.193-3.215,0.367-4.889,0.515
	c-1.215,0.108-2.453,0.199-3.711,0.281c-1.726,0.113-3.497,0.194-5.303,0.256c-1.312,0.045-2.625,0.083-3.979,0.099
	c-0.689,0.008-1.328,0.05-2.028,0.05c-1.416,0-2.922-0.067-4.385-0.101c-1.039-0.024-2.05-0.029-3.111-0.071
	c-3.323-0.131-6.73-0.328-10.282-0.649c-1.39-0.125-2.842-0.253-4.352-0.384c-0.86-0.074-1.771-0.152-2.667-0.228
	c-0.58-0.049-1.135-0.098-1.73-0.148c-22.755-1.927-56.203-4.496-88.107-8.39c-0.014-0.002-0.031-0.004-0.046-0.005l0,0
	c-33.805-4.127-65.869-9.743-81.606-17.678c-45.545-22.965-98.426-67.142-125.595-183.065
	c-30.018-128.079-15.615-281.633,22.014-352.219c48.03-90.1,100.063-111.691,163.131-138.065
	c11.835-4.949,34.092-8.182,58.827-10.348l0,0c0.004,0,0.007,0,0.011-0.001c2.664-0.234,5.362-0.451,8.074-0.66
	c0.808-0.062,1.618-0.122,2.428-0.182c2.009-0.15,4.021-0.293,6.041-0.431c0.824-0.056,1.644-0.112,2.471-0.167
	c2.421-0.159,4.843-0.31,7.267-0.453c0.324-0.019,0.648-0.041,0.972-0.059c2.75-0.16,5.492-0.309,8.224-0.45
	c0.773-0.04,1.54-0.078,2.311-0.116c2.003-0.101,3.992-0.197,5.972-0.288c0.864-0.04,1.722-0.08,2.581-0.118
	c2.122-0.095,4.22-0.184,6.302-0.269c0.546-0.022,1.097-0.046,1.64-0.068c2.581-0.103,5.12-0.2,7.616-0.29
	c0.716-0.026,1.407-0.049,2.115-0.075c1.815-0.064,3.602-0.125,5.359-0.183c0.887-0.03,1.755-0.058,2.626-0.085
	c1.607-0.052,3.177-0.101,4.725-0.148c0.746-0.022,1.502-0.046,2.234-0.068c2.013-0.06,3.975-0.117,5.865-0.171
	c1.775-0.05,3.444-0.097,5.1-0.143c0.012,0,0.024,0,0.036-0.001c2.663-0.074,5.2-0.145,7.512-0.211
	c0.232-0.006,0.476-0.013,0.704-0.02c1.799-0.052,3.487-0.102,5.035-0.151c0.019-0.001,0.036-0.001,0.056-0.002
	c1.409-0.045,2.673-0.089,3.854-0.133c0.311-0.011,0.597-0.023,0.891-0.035c0.896-0.035,1.7-0.071,2.436-0.107
	c0.256-0.013,0.526-0.025,0.761-0.037c0.875-0.047,1.651-0.096,2.236-0.146c2.123-0.184,4.414-0.352,6.813-0.48
	c0.115-0.006,0.222-0.013,0.339-0.019c2.358-0.121,4.828-0.195,7.366-0.201c0.103,0,0.194-0.008,0.296-0.008
	c0.122,0,0.249,0.007,0.371,0.007C756.453,1227.142,757.864,1227.167,759.293,1227.221z M752.1,1925.959
	c-12.438,0-25.407-0.933-38.891-2.832c-145.621-20.51-194.845-272.783-157.927-479.934
	c26.567-149.064,121.008-186.641,121.008-186.641c28.651-8.98,54.95-13.097,79.097-13.097
	c207.485,0,253.632,304.609,222.401,447.909C946.151,1836.53,873.995,1925.959,752.1,1925.959z M612.416,226.679
	c-19.173,9.572-39.227,22.459-58.88,39.827c-35.271,31.178-69.107,76.73-94.041,142.89
	c-24.942,66.165-41.025,152.916-41.025,266.712c0,15.365,0.293,31.223,0.901,47.592l0.006,0.136
	c0.008,0.114,5.022,78.705,22.44,187.127c16.099,100.163,42.79,225.733,85.988,338.575c-3.151,1.456-6.279,2.944-9.387,4.468
	C474.934,1134.514,215.765,373.386,612.416,226.679z"/>
<path style="fill:#F8B36E;" d="M1545.915,1243.456c-2.734,7.556,6.687,10.075,20.459,10.075c27.549,0,72.52-10.075,72.52-10.075
	s147.672-499.652,21.877-781.323c-105.746-236.783-426.572-305.41-671.166-305.419c-46.369-0.001-89.955,2.463-128.863,6.716
	c0,0-113.404,13.763-218.802,50.698l-0.058,0.182c5.096,0,98.655-15.87,222.721-15.871c196.18-0.002,468.65,39.68,588.335,244.551
	C1599.301,693.528,1554.12,1220.787,1545.915,1243.456z"/>
</svg>
